<svg xmlns="http://www.w3.org/2000/svg" viewBox="0 0 212.02 127.86"><defs><style>.cls-1{fill:#6290c3;}.cls-2{fill:#ee2562;}.cls-3{fill:#fff;}.cls-4{fill:#231f20;}</style></defs><g id="Layer_2" data-name="Layer 2"><g id="Layer_1-2" data-name="Layer 1"><path class="cls-1" d="M204.06,50.85a8.58,8.58,0,0,1-8.38-10.42,8.59,8.59,0,0,1-11.2-11.85A8.58,8.58,0,0,1,174,16.36,8.58,8.58,0,0,1,167.56.71C157.65.33,147.21,4,137.91,13.25c-38-38-95.29,19.31-57.3,57.3l57.3,57.31,57.3-57.31c6.38-6.37,10.08-13.27,11.66-20.18A8.42,8.42,0,0,1,204.06,50.85Z"/><path class="cls-2" d="M209.21,50.16a8.58,8.58,0,0,1-8.38-10.42A8.58,8.58,0,0,1,188.61,32a8.66,8.66,0,0,1,1-4.08,8.38,8.38,0,0,1-3,.54,8.58,8.58,0,0,1-7.5-12.75,9.14,9.14,0,0,1-1.9.21A8.58,8.58,0,0,1,172.71,0c-9.91-.39-20.35,3.24-29.65,12.54-38-38-95.29,19.31-57.3,57.3l57.3,57.3,57.3-57.3A41.63,41.63,0,0,0,212,49.69,8.67,8.67,0,0,1,209.21,50.16Z"/></g><g id="Layer_2-2" data-name="Layer 2"><path class="cls-3" d="M23.86,99.59a4.73,4.73,0,0,1-2.3-4.5,12.33,12.33,0,0,1,1-4.53,9.67,9.67,0,0,0,2.62,2.19,5.6,5.6,0,0,0,2.62.63q3.9,0,5.82-4.38a24,24,0,0,0,1.91-9.68q0-9.93-7.42-9.92a22.91,22.91,0,0,0-3.59.23L18.12,99.55H6.87L17.5,49.87l11.56-1.56L25.39,65.65h.46a9.12,9.12,0,0,0,5.55-1.92,14.28,14.28,0,0,0,4.14-4.84A12.43,12.43,0,0,0,37.1,53a7.94,7.94,0,0,0-2.54-6Q32,44.57,26.79,44.56a21.33,21.33,0,0,0-9.29,2.15,18,18,0,0,0-7.38,6.44A18.29,18.29,0,0,0,7.26,63.54a10.27,10.27,0,0,0,.55,4,7.63,7.63,0,0,1,.55,1.29q-4.14,0-6.25-1.68C.7,66.05,0,64.22,0,61.66A15.49,15.49,0,0,1,4,51.59a28.77,28.77,0,0,1,10.55-7.7A33.55,33.55,0,0,1,28.35,41a22.15,22.15,0,0,1,9.22,1.72,12.92,12.92,0,0,1,5.59,4.53A11.12,11.12,0,0,1,45,53.38a13.31,13.31,0,0,1-2,7,15.38,15.38,0,0,1-5.78,5.46,10,10,0,0,1,7,4.34,14.75,14.75,0,0,1,2.27,8.24,31.76,31.76,0,0,1-1.68,9.68,21.77,21.77,0,0,1-5.55,9,13.55,13.55,0,0,1-9.88,3.78A11.06,11.06,0,0,1,23.86,99.59Z"/><path class="cls-3" d="M50.81,97.67c-1.54-1.56-2.3-3.9-2.3-7a26.84,26.84,0,0,1,.62-5.08l5.31-25.07H65.69L60.07,87.05a9.56,9.56,0,0,0-.32,2.5,2.83,2.83,0,0,0,.75,2.22,3.6,3.6,0,0,0,2.46.67,5.92,5.92,0,0,0,4.21-1.92,11,11,0,0,0,2.82-5h3.28Q70.38,94,65.85,97a16.26,16.26,0,0,1-9,3A8.11,8.11,0,0,1,50.81,97.67Zm7-43.19A6,6,0,0,1,56,50.1a6.06,6.06,0,0,1,1.8-4.41,5.92,5.92,0,0,1,4.37-1.84,6.27,6.27,0,0,1,6.25,6.25,5.91,5.91,0,0,1-1.83,4.38,6.09,6.09,0,0,1-4.42,1.79A6,6,0,0,1,57.8,54.48Z"/><path class="cls-3" d="M71.66,97.67q-2.3-2.34-2.3-7A27,27,0,0,1,70,85.56l4.68-21.94H72.09l.63-3.13H75.3l2.34-10.78L89.2,48.15,86.54,60.49h4.69l-.62,3.13H85.92l-5,23.43a9.57,9.57,0,0,0-.31,2.5,2.83,2.83,0,0,0,.74,2.22,3.6,3.6,0,0,0,2.46.67A5.94,5.94,0,0,0,88,90.52a10.85,10.85,0,0,0,2.81-5h3.28Q91.23,94,86.7,97a16.21,16.21,0,0,1-9,3A8.14,8.14,0,0,1,71.66,97.67Z"/><path class="cls-3" d="M93,97q-3.2-3-3.2-9.41a38.6,38.6,0,0,1,2.11-11.88,27.53,27.53,0,0,1,6.87-11.21,16.48,16.48,0,0,1,12.11-4.72q8.58,0,8.59,7.5a14,14,0,0,1-2.5,8,18.42,18.42,0,0,1-6.64,5.9,21.52,21.52,0,0,1-8.83,2.54c-.1,1.14-.15,1.93-.15,2.34q0,6.48,4.84,6.48a11.12,11.12,0,0,0,4.69-1.17,19.06,19.06,0,0,0,4.53-3Q113.26,100,101.85,100C98.05,100,95.08,99,93,97ZM107.6,78.07a14.09,14.09,0,0,0,4.21-4.81,12.55,12.55,0,0,0,1.6-6.13c0-2.13-.65-3.2-2-3.2q-2.73,0-5.43,5A41.92,41.92,0,0,0,102,80,9.89,9.89,0,0,0,107.6,78.07Z"/><path class="cls-4" d="M27.72,99.59a4.71,4.71,0,0,1-2.3-4.5,12.13,12.13,0,0,1,1-4.53,9.67,9.67,0,0,0,2.62,2.19,5.56,5.56,0,0,0,2.61.63q3.92,0,5.82-4.38a23.8,23.8,0,0,0,1.92-9.68q0-9.93-7.42-9.92a23.13,23.13,0,0,0-3.6.23L22,99.55H10.73L21.35,49.87l11.56-1.56L29.24,65.65h.47a9.12,9.12,0,0,0,5.55-1.92,14.28,14.28,0,0,0,4.14-4.84A12.43,12.43,0,0,0,41,53a8,8,0,0,0-2.54-6q-2.54-2.41-7.77-2.42a21.37,21.37,0,0,0-9.3,2.15A18,18,0,0,0,14,53.15a18.37,18.37,0,0,0-2.85,10.39,10.08,10.08,0,0,0,.55,4,7.63,7.63,0,0,1,.55,1.29q-4.16,0-6.25-1.68c-1.41-1.12-2.11-3-2.11-5.51a15.49,15.49,0,0,1,4-10.07,28.77,28.77,0,0,1,10.55-7.7A33.55,33.55,0,0,1,32.21,41a22.15,22.15,0,0,1,9.22,1.72A12.83,12.83,0,0,1,47,47.21a11,11,0,0,1,1.84,6.17,13.31,13.31,0,0,1-2,7A15.45,15.45,0,0,1,41,65.8a10,10,0,0,1,7,4.34,14.75,14.75,0,0,1,2.26,8.24,32,32,0,0,1-1.67,9.68,21.77,21.77,0,0,1-5.55,9,13.55,13.55,0,0,1-9.88,3.78A11.06,11.06,0,0,1,27.72,99.59Z"/><path class="cls-4" d="M54.67,97.67q-2.31-2.34-2.31-7A27,27,0,0,1,53,85.56L58.3,60.49H69.55L63.92,87.05a9.57,9.57,0,0,0-.31,2.5,2.87,2.87,0,0,0,.74,2.22,3.64,3.64,0,0,0,2.46.67A5.94,5.94,0,0,0,71,90.52a10.85,10.85,0,0,0,2.81-5h3.28Q74.24,94,69.7,97a16.21,16.21,0,0,1-9,3A8.11,8.11,0,0,1,54.67,97.67Zm7-43.19a6,6,0,0,1-1.8-4.38,6.06,6.06,0,0,1,1.8-4.41A5.9,5.9,0,0,1,66,43.85a6.27,6.27,0,0,1,6.25,6.25,5.91,5.91,0,0,1-1.83,4.38A6.09,6.09,0,0,1,66,56.27,5.93,5.93,0,0,1,61.66,54.48Z"/><path class="cls-4" d="M75.52,97.67q-2.3-2.34-2.3-7a27.69,27.69,0,0,1,.62-5.08l4.69-21.94H76l.63-3.13h2.57L81.5,49.71l11.56-1.56L90.4,60.49h4.69l-.63,3.13H89.78l-5,23.43a9.57,9.57,0,0,0-.31,2.5,2.83,2.83,0,0,0,.74,2.22,3.6,3.6,0,0,0,2.46.67,6,6,0,0,0,4.22-1.92,10.94,10.94,0,0,0,2.81-5H98Q95.09,94,90.56,97a16.23,16.23,0,0,1-9,3A8.14,8.14,0,0,1,75.52,97.67Z"/><path class="cls-4" d="M96.81,97Q93.6,94,93.6,87.6a38.9,38.9,0,0,1,2.11-11.88,27.66,27.66,0,0,1,6.88-11.21,16.45,16.45,0,0,1,12.1-4.72q8.59,0,8.6,7.5a14,14,0,0,1-2.5,8,18.42,18.42,0,0,1-6.64,5.9,21.52,21.52,0,0,1-8.83,2.54c-.1,1.14-.15,1.93-.15,2.34q0,6.48,4.84,6.48a11,11,0,0,0,4.68-1.17,18.67,18.67,0,0,0,4.53-3Q117.12,100,105.71,100C101.91,100,98.94,99,96.81,97Zm14.64-18.94a14.12,14.12,0,0,0,4.22-4.81,12.55,12.55,0,0,0,1.6-6.13c0-2.13-.65-3.2-2-3.2q-2.73,0-5.43,5a41.23,41.23,0,0,0-4,11.13A9.83,9.83,0,0,0,111.45,78.07Z"/></g></g></svg>