<svg xmlns="http://www.w3.org/2000/svg" viewBox="0 0 278.14 377.73"><defs><style>.cls-1{fill:#6290c3;}.cls-2{fill:#ee2562;}.cls-3{fill:#569673;}.cls-4{fill:#062037;}.cls-5{fill:#527799;}.cls-6{fill:#7ca0c1;}.cls-7{fill:#e5e5e5;}.cls-8{fill:#3b684f;}.cls-9{opacity:0.35;}</style></defs><g id="Layer_2" data-name="Layer 2"><g id="Layer_2-2" data-name="Layer 2"><path class="cls-1" d="M4.75,377.73H223.5a13.4,13.4,0,0,0,1.91-6.91V190.08a13.48,13.48,0,0,0-13.48-13.49H53A13.44,13.44,0,0,0,42.21,182c-9.37-2.84-24.36,3.13-31.13,19.06Q5.55,243.37,0,285.63H4.75Z"/><path class="cls-1" d="M211.36,285.63h51.76L252.05,201.1c-7.56-17.78-25.36-23.15-34.14-17.74-6.68,4.12-9.68,15.41-6.55,27Z"/><rect class="cls-1" x="72.13" y="6.8" width="120.69" height="139.66" rx="30.6"/><ellipse class="cls-1" cx="72.32" cy="89.22" rx="7.76" ry="18.97"/><ellipse class="cls-1" cx="193.01" cy="89.22" rx="7.76" ry="18.97"/><path class="cls-1" d="M171.06,178.66c0,28.23-77.18,28.23-77.18,0v-40h77.18Z"/><polygon class="cls-1" points="78.83 177.16 80.57 177.24 80.07 175.95 78.83 177.16"/><polygon class="cls-1" points="78.83 161.16 80.38 161.25 80.01 162.63 78.83 161.16"/><ellipse class="cls-1" cx="80.38" cy="169.25" rx="3.98" ry="8"/><ellipse class="cls-1" cx="78.83" cy="169.16" rx="3.35" ry="8"/><path class="cls-1" d="M95.82,173.11H83.25v-7.72H95.82a16.82,16.82,0,0,1,.45,4A16.37,16.37,0,0,1,95.82,173.11Z"/><polygon class="cls-1" points="187.04 177.16 185.3 177.24 185.8 175.95 187.04 177.16"/><polygon class="cls-1" points="187.04 161.16 185.49 161.25 185.86 162.63 187.04 161.16"/><ellipse class="cls-1" cx="185.49" cy="169.25" rx="3.98" ry="8"/><ellipse class="cls-1" cx="187.04" cy="169.16" rx="3.35" ry="8"/><path class="cls-1" d="M170.05,173.11h12.58v-7.72H170.05a16.77,16.77,0,0,0,0,7.72Z"/><path class="cls-1" d="M162.21,6.69H102.73A30.61,30.61,0,0,0,72.13,37.3V62.62A30.6,30.6,0,0,1,102.73,32h59.48a30.61,30.61,0,0,1,30.61,30.6V37.3A30.62,30.62,0,0,0,162.21,6.69Z"/><polygon class="cls-1" points="84.36 45.56 90.54 25.84 78.18 25.84 84.36 45.56"/><polygon class="cls-1" points="90.54 38.99 96.72 19.26 84.36 19.26 90.54 38.99"/><polygon class="cls-1" points="100.06 41.76 106.24 22.03 93.88 22.03 100.06 41.76"/><polygon class="cls-1" points="106.24 38.99 111.31 19.26 101.17 19.26 106.24 38.99"/><polygon class="cls-1" points="114.04 38.99 120.22 19.26 107.86 19.26 114.04 38.99"/><polygon class="cls-1" points="124.28 38.99 130.46 19.26 118.09 19.26 124.28 38.99"/><polygon class="cls-1" points="132.2 40.03 138.38 20.3 126.02 20.3 132.2 40.03"/><polygon class="cls-1" points="138.38 37.52 144.56 17.8 132.2 17.8 138.38 37.52"/><polygon class="cls-1" points="145.32 39.82 150.01 20.41 140.62 20.41 145.32 39.82"/><polygon class="cls-1" points="151.8 39.82 156.5 20.41 147.11 20.41 151.8 39.82"/><polygon class="cls-1" points="158.16 38.78 162.85 19.36 153.46 19.36 158.16 38.78"/><polygon class="cls-1" points="164.92 39.82 169.62 20.41 160.23 20.41 164.92 39.82"/><polygon class="cls-1" points="171.06 45.35 175.75 25.94 166.37 25.94 171.06 45.35"/><polygon class="cls-1" points="178.99 45.25 183.69 25.84 174.3 25.84 178.99 45.25"/><polygon class="cls-1" points="185.49 51.72 190.18 32.31 180.8 32.31 185.49 51.72"/><polygon class="cls-1" points="190.39 59.25 192.84 41.25 187.94 41.25 190.39 59.25"/><ellipse class="cls-1" cx="104.83" cy="80.14" rx="11.94" ry="9.88"/><ellipse class="cls-1" cx="160.51" cy="80.14" rx="11.94" ry="9.88"/><path class="cls-1" d="M154.63,127.89c.1,1.6-11,4.29-22.16,4.31-11.3,0-22.59-2.7-22.49-4.31.12-1.88,15.8-2.28,22.49-2.28C138.86,125.62,154.51,126,154.63,127.89Z"/><ellipse class="cls-1" cx="132.67" cy="100.64" rx="8.12" ry="2.92"/><rect class="cls-2" x="12.03" y="265.05" width="39.06" height="112.56"/><path class="cls-2" d="M51.58,377.61H227.93a13.41,13.41,0,0,0,4.77-10.27V186.59a13.48,13.48,0,0,0-13.48-13.48H60.3a13.47,13.47,0,0,0-13.48,13.48V367.34A13.43,13.43,0,0,0,51.58,377.61Z"/><path class="cls-2" d="M59.05,282.14H7.29l11.07-84.53c7.56-17.78,25.36-23.15,34.14-17.73,6.68,4.11,9.68,15.4,6.55,27Z"/><path class="cls-2" d="M218.65,282.14h51.76l-11.08-84.53c-7.55-17.78-25.35-23.15-34.14-17.73-6.67,4.11-9.67,15.4-6.54,27Z"/><rect class="cls-2" x="79.41" y="3.32" width="120.69" height="139.66" rx="30.6"/><ellipse class="cls-2" cx="79.61" cy="85.73" rx="7.76" ry="18.97"/><ellipse class="cls-2" cx="200.3" cy="85.73" rx="7.76" ry="18.97"/><path class="cls-2" d="M178.35,175.17c0,28.24-77.18,28.24-77.18,0v-40h77.18Z"/><polygon class="cls-2" points="86.12 173.67 87.86 173.75 87.36 172.47 86.12 173.67"/><polygon class="cls-2" points="86.12 157.67 87.67 157.76 87.3 159.14 86.12 157.67"/><ellipse class="cls-2" cx="87.67" cy="165.76" rx="3.98" ry="8"/><ellipse class="cls-2" cx="86.12" cy="165.67" rx="3.35" ry="8"/><path class="cls-2" d="M103.11,169.62H90.53V161.9h12.58a16.77,16.77,0,0,1,0,7.72Z"/><polygon class="cls-2" points="194.33 173.67 192.59 173.75 193.09 172.47 194.33 173.67"/><polygon class="cls-2" points="194.33 157.67 192.78 157.76 193.15 159.14 194.33 157.67"/><ellipse class="cls-2" cx="192.78" cy="165.76" rx="3.98" ry="8"/><ellipse class="cls-2" cx="194.33" cy="165.67" rx="3.35" ry="8"/><path class="cls-2" d="M177.34,169.62h12.57V161.9H177.34a16.82,16.82,0,0,0-.45,4A16.37,16.37,0,0,0,177.34,169.62Z"/><path class="cls-2" d="M169.5,3.21H110a30.6,30.6,0,0,0-30.61,30.6V59.14A30.61,30.61,0,0,1,110,28.53H169.5a30.61,30.61,0,0,1,30.6,30.61V33.81A30.6,30.6,0,0,0,169.5,3.21Z"/><polygon class="cls-2" points="91.64 42.07 97.83 22.35 85.47 22.35 91.64 42.07"/><polygon class="cls-2" points="97.83 35.5 104 15.77 91.64 15.77 97.83 35.5"/><polygon class="cls-2" points="107.35 38.27 113.53 18.54 101.17 18.54 107.35 38.27"/><polygon class="cls-2" points="113.53 35.5 118.6 15.77 108.46 15.77 113.53 35.5"/><polygon class="cls-2" points="121.33 35.5 127.51 15.77 115.15 15.77 121.33 35.5"/><polygon class="cls-2" points="131.56 35.5 137.74 15.77 125.38 15.77 131.56 35.5"/><polygon class="cls-2" points="139.49 36.54 145.67 16.81 133.31 16.81 139.49 36.54"/><polygon class="cls-2" points="145.67 34.03 151.85 14.31 139.49 14.31 145.67 34.03"/><polygon class="cls-2" points="152.6 36.33 157.3 16.92 147.91 16.92 152.6 36.33"/><polygon class="cls-2" points="159.09 36.33 163.78 16.92 154.4 16.92 159.09 36.33"/><polygon class="cls-2" points="165.44 35.29 170.14 15.88 160.75 15.88 165.44 35.29"/><polygon class="cls-2" points="172.21 36.33 176.9 16.92 167.52 16.92 172.21 36.33"/><polygon class="cls-2" points="178.35 41.87 183.04 22.45 173.65 22.45 178.35 41.87"/><polygon class="cls-2" points="186.28 41.76 190.97 22.35 181.59 22.35 186.28 41.76"/><polygon class="cls-2" points="192.78 48.23 197.47 28.82 188.09 28.82 192.78 48.23"/><polygon class="cls-2" points="197.68 55.76 200.13 37.76 195.23 37.76 197.68 55.76"/><ellipse class="cls-2" cx="112.11" cy="76.65" rx="11.94" ry="9.88"/><ellipse class="cls-2" cx="167.79" cy="76.65" rx="11.94" ry="9.88"/><path class="cls-2" d="M161.91,124.41c.1,1.59-11,4.28-22.15,4.3-11.31,0-22.59-2.69-22.49-4.3.11-1.88,15.8-2.29,22.49-2.28C146.14,122.13,161.8,122.53,161.91,124.41Z"/><ellipse class="cls-2" cx="139.95" cy="97.15" rx="8.12" ry="2.92"/><polyline class="cls-3" points="272.26 371.16 272.26 261.85 233.2 261.85 233.2 377.61 272.26 377.61 272.26 371.16"/><polyline class="cls-3" points="18.85 371.16 18.85 377.61 57.91 377.61 57.91 261.85 18.85 261.85 18.85 371.16"/><path class="cls-4" d="M239.52,377.61V183.41A13.5,13.5,0,0,0,226,169.9H67.12a13.5,13.5,0,0,0-13.49,13.51v194.2Z"/><path class="cls-4" d="M65.87,278.93H14.1l11.08-84.52c7.56-17.78,25.36-23.15,34.14-17.74,6.68,4.12,9.68,15.4,6.55,27Z"/><path class="cls-4" d="M225.46,278.93h51.77l-11.08-84.52c-7.56-17.78-25.35-23.15-34.14-17.74-6.67,4.12-9.67,15.4-6.55,27Z"/><rect class="cls-3" x="86.23" y="0.11" width="120.69" height="139.66" rx="30.6"/><ellipse class="cls-3" cx="86.43" cy="82.52" rx="7.76" ry="18.97"/><ellipse class="cls-3" cx="207.12" cy="82.52" rx="7.76" ry="18.97"/><path class="cls-3" d="M185.16,172c0,28.23-77.17,28.23-77.17,0V132h77.17Z"/><polygon class="cls-5" points="92.94 170.47 94.68 170.54 94.17 169.26 92.94 170.47"/><polygon class="cls-5" points="92.94 154.47 94.49 154.55 94.12 155.94 92.94 154.47"/><ellipse class="cls-5" cx="94.49" cy="162.55" rx="3.98" ry="8"/><ellipse class="cls-6" cx="92.94" cy="162.47" rx="3.35" ry="8"/><path class="cls-5" d="M109.92,166.41H97.35v-7.72h12.57a16.41,16.41,0,0,1,0,7.72Z"/><polygon class="cls-5" points="201.14 170.47 199.41 170.54 199.91 169.26 201.14 170.47"/><polygon class="cls-5" points="201.14 154.47 199.6 154.55 199.97 155.94 201.14 154.47"/><ellipse class="cls-5" cx="199.6" cy="162.55" rx="3.98" ry="8"/><ellipse class="cls-6" cx="201.14" cy="162.47" rx="3.35" ry="8"/><path class="cls-5" d="M184.16,166.41h12.57v-7.72H184.16a16.41,16.41,0,0,0,0,7.72Z"/><path class="cls-4" d="M176.32,0H116.83a30.6,30.6,0,0,0-30.6,30.6V55.93a30.6,30.6,0,0,1,30.6-30.6h59.49a30.6,30.6,0,0,1,30.6,30.6V30.6A30.6,30.6,0,0,0,176.32,0Z"/><polygon class="cls-4" points="98.46 38.87 104.64 19.14 92.28 19.14 98.46 38.87"/><polygon class="cls-4" points="104.64 32.29 110.82 12.57 98.46 12.57 104.64 32.29"/><polygon class="cls-4" points="114.17 35.06 120.35 15.34 107.99 15.34 114.17 35.06"/><polygon class="cls-4" points="120.35 32.29 125.42 12.57 115.28 12.57 120.35 32.29"/><polygon class="cls-4" points="128.15 32.29 134.32 12.57 121.97 12.57 128.15 32.29"/><polygon class="cls-4" points="138.38 32.29 144.56 12.57 132.2 12.57 138.38 32.29"/><polygon class="cls-4" points="146.31 33.33 152.49 13.61 140.13 13.61 146.31 33.33"/><polygon class="cls-4" points="152.49 30.83 158.66 11.1 146.31 11.1 152.49 30.83"/><polygon class="cls-4" points="159.42 33.12 164.12 13.71 154.73 13.71 159.42 33.12"/><polygon class="cls-4" points="165.91 33.12 170.6 13.71 161.22 13.71 165.91 33.12"/><polygon class="cls-4" points="172.26 32.08 176.96 12.67 167.57 12.67 172.26 32.08"/><polygon class="cls-4" points="179.03 33.12 183.72 13.71 174.33 13.71 179.03 33.12"/><polygon class="cls-4" points="185.16 38.66 189.86 19.25 180.47 19.25 185.16 38.66"/><polygon class="cls-4" points="193.1 38.55 197.79 19.14 188.4 19.14 193.1 38.55"/><polygon class="cls-4" points="199.6 45.02 204.29 25.61 194.9 25.61 199.6 45.02"/><polygon class="cls-4" points="204.5 52.55 206.95 34.55 202.05 34.55 204.5 52.55"/><polygon class="cls-4" points="92.94 47.49 97.63 28.08 88.25 28.08 92.94 47.49"/><ellipse class="cls-7" cx="118.93" cy="73.44" rx="11.94" ry="9.88"/><ellipse class="cls-7" cx="174.61" cy="73.44" rx="11.94" ry="9.88"/><path class="cls-8" d="M168.73,121.2c.1,1.6-11,4.28-22.15,4.31-11.31,0-22.59-2.7-22.49-4.31.11-1.88,15.8-2.29,22.49-2.28C153,118.92,168.62,119.32,168.73,121.2Z"/><ellipse class="cls-8" cx="146.77" cy="93.95" rx="8.12" ry="2.92"/><g class="cls-9"><polyline class="cls-1" points="273.17 371.16 273.17 261.85 234.11 261.85 234.11 377.61 273.17 377.61 273.17 371.16"/><polyline class="cls-1" points="19.76 371.16 19.76 377.61 58.82 377.61 58.82 261.85 19.76 261.85 19.76 371.16"/><path class="cls-1" d="M240.43,377.61V183.41a13.5,13.5,0,0,0-13.49-13.51H68a13.5,13.5,0,0,0-13.49,13.51v194.2Z"/><path class="cls-1" d="M66.78,278.93H15l11.08-84.52c7.56-17.78,25.36-23.15,34.14-17.74,6.67,4.12,9.68,15.4,6.55,27Z"/><path class="cls-1" d="M226.37,278.93h51.77l-11.08-84.52c-7.56-17.78-25.35-23.15-34.14-17.74-6.67,4.12-9.68,15.4-6.55,27Z"/><rect class="cls-1" x="87.14" y="0.11" width="120.69" height="139.66" rx="30.6"/><ellipse class="cls-1" cx="87.34" cy="82.52" rx="7.76" ry="18.97"/><ellipse class="cls-1" cx="208.02" cy="82.52" rx="7.76" ry="18.97"/><path class="cls-1" d="M186.07,172c0,28.23-77.17,28.23-77.17,0V132h77.17Z"/><polygon class="cls-1" points="93.85 170.47 95.58 170.54 95.08 169.26 93.85 170.47"/><polygon class="cls-1" points="93.85 154.47 95.4 154.55 95.03 155.94 93.85 154.47"/><ellipse class="cls-1" cx="95.4" cy="162.55" rx="3.98" ry="8"/><ellipse class="cls-1" cx="93.85" cy="162.47" rx="3.35" ry="8"/><path class="cls-1" d="M110.83,166.41H98.26v-7.72h12.57a16.41,16.41,0,0,1,0,7.72Z"/><polygon class="cls-1" points="202.05 170.47 200.31 170.54 200.82 169.26 202.05 170.47"/><polygon class="cls-1" points="202.05 154.47 200.5 154.55 200.88 155.94 202.05 154.47"/><ellipse class="cls-1" cx="200.5" cy="162.55" rx="3.98" ry="8"/><ellipse class="cls-1" cx="202.05" cy="162.47" rx="3.35" ry="8"/><path class="cls-1" d="M185.07,166.41h12.57v-7.72H185.07a16.41,16.41,0,0,0,0,7.72Z"/><path class="cls-1" d="M177.23,0H117.74a30.6,30.6,0,0,0-30.6,30.6V55.93a30.6,30.6,0,0,1,30.6-30.6h59.49a30.6,30.6,0,0,1,30.6,30.6V30.6A30.6,30.6,0,0,0,177.23,0Z"/><polygon class="cls-1" points="99.37 38.87 105.55 19.14 93.19 19.14 99.37 38.87"/><polygon class="cls-1" points="105.55 32.29 111.73 12.57 99.37 12.57 105.55 32.29"/><polygon class="cls-1" points="115.08 35.06 121.26 15.34 108.9 15.34 115.08 35.06"/><polygon class="cls-1" points="121.26 32.29 126.33 12.57 116.19 12.57 121.26 32.29"/><polygon class="cls-1" points="129.05 32.29 135.23 12.57 122.87 12.57 129.05 32.29"/><polygon class="cls-1" points="139.29 32.29 145.47 12.57 133.11 12.57 139.29 32.29"/><polygon class="cls-1" points="147.21 33.33 153.39 13.61 141.03 13.61 147.21 33.33"/><polygon class="cls-1" points="153.39 30.83 159.57 11.1 147.21 11.1 153.39 30.83"/><polygon class="cls-1" points="160.33 33.12 165.02 13.71 155.64 13.71 160.33 33.12"/><polygon class="cls-1" points="166.82 33.12 171.51 13.71 162.13 13.71 166.82 33.12"/><polygon class="cls-1" points="173.17 32.08 177.86 12.67 168.48 12.67 173.17 32.08"/><polygon class="cls-1" points="179.94 33.12 184.63 13.71 175.24 13.71 179.94 33.12"/><polygon class="cls-1" points="186.07 38.66 190.77 19.25 181.38 19.25 186.07 38.66"/><polygon class="cls-1" points="194.01 38.55 198.7 19.14 189.31 19.14 194.01 38.55"/><polygon class="cls-1" points="200.5 45.02 205.2 25.61 195.81 25.61 200.5 45.02"/><polygon class="cls-1" points="205.41 52.55 207.86 34.55 202.96 34.55 205.41 52.55"/><polygon class="cls-1" points="93.85 47.49 98.54 28.08 89.15 28.08 93.85 47.49"/><ellipse class="cls-1" cx="119.84" cy="73.44" rx="11.94" ry="9.88"/><ellipse class="cls-1" cx="175.52" cy="73.44" rx="11.94" ry="9.88"/><path class="cls-1" d="M169.64,121.2c.1,1.6-11,4.28-22.16,4.31-11.3,0-22.58-2.7-22.49-4.31.12-1.88,15.81-2.29,22.49-2.28C153.87,118.92,169.53,119.32,169.64,121.2Z"/><ellipse class="cls-1" cx="147.68" cy="93.95" rx="8.12" ry="2.92"/></g></g></g></svg>