<svg xmlns="http://www.w3.org/2000/svg" viewBox="0 0 166 206.28"><defs><style>.cls-1{fill:#468fbc;}</style></defs><g id="Layer_2" data-name="Layer 2"><g id="Layer_1-2" data-name="Layer 1"><g id="Layer_2-2" data-name="Layer 2"><g id="Layer_1-2-2" data-name="Layer 1-2"><path class="cls-1" d="M166,130c0,42.13-37.19,76.28-83,76.28S0,172.13,0,130c0-29.25,19.8-49.62,23.09-52.77,2.86-2.75,26-24.24,60-23.5C122,54.56,166,84.66,166,130Z"/><path class="cls-1" d="M30.43,101.76C24,92.53,6,63.9,13.11,28.11a90.15,90.15,0,0,1,9.06-25A103.53,103.53,0,0,0,39.65,55.68,103.58,103.58,0,0,0,60,77.8Z"/><path class="cls-1" d="M153.61,96.17c3.19-10.8,11.25-43.67-6.86-75.36A90.22,90.22,0,0,0,130.26,0a103.43,103.43,0,0,1,0,55.36A103.74,103.74,0,0,1,118,82.78Z"/></g></g></g></g></svg>